<?xml version="1.0" encoding="utf-8"?>
<!-- Generator: Adobe Illustrator 22.0.0, SVG Export Plug-In . SVG Version: 6.00 Build 0)  -->
<svg version="1.1" id="Layer_1" xmlns="http://www.w3.org/2000/svg" xmlns:xlink="http://www.w3.org/1999/xlink" x="0px" y="0px"
	 viewBox="0 0 489 405" style="enable-background:new 0 0 489 405;" xml:space="preserve">
<style type="text/css">
	.st0{fill:#FFA400;}
	.st1{display:none;}
	.st2{display:inline;fill:#FFA400;}
	.st3{display:inline;fill:#005BFF;}
	.st4{display:inline;}
</style>
<g>
	<path class="st0" d="M470.7,398h-453c-6.6,0-12-5.4-12-12v-369c0-6.6,5.4-12,12-12h453c6.6,0,12,5.4,12,12v369
		C482.7,392.6,477.3,398,470.7,398z"/>
</g>
<g class="st1">
	<path class="st2" d="M551.7,480h-328c-6.6,0-12-5.4-12-12V202c0-6.6,5.4-12,12-12h328c6.6,0,12,5.4,12,12v266
		C563.7,474.6,558.3,480,551.7,480z"/>
</g>
<g class="st1">
	<path class="st3" d="M181.7,481h-328c-6.6,0-12-5.4-12-12V203c0-6.6,5.4-12,12-12h328c6.6,0,12,5.4,12,12v266
		C193.7,475.6,188.3,481,181.7,481z"/>
</g>
<g class="st1">
	<path class="st3" d="M552.7,481h-328c-6.6,0-12-5.4-12-12V203c0-6.6,5.4-12,12-12h328c6.6,0,12,5.4,12,12v266
		C564.7,475.6,559.3,481,552.7,481z"/>
</g>
<g>
	<g>
		<path d="M337.4,350h-77.5V229.2c0-10.6-2.4-18.3-7.1-23.1c-4.8-4.8-10.7-7.1-17.8-7.1c-2.4,0-5.4,0.8-8.8,2.2
			c-3.4,1.5-6.8,3.5-10.2,6.1c-3.4,2.6-6.6,5.8-9.6,9.6c-3,3.8-5.4,8-7.3,12.7V350h-77.5V52H199v115.1c7.6-11.7,17.6-20.6,29.8-26.7
			s26-9.2,41.2-9.2c15,0,26.9,2.6,35.9,7.8c9,5.2,15.8,11.6,20.4,19.4c4.6,7.8,7.6,16.1,9,25.1c1.4,9,2,17.4,2,25.3V350z"/>
	</g>
	<g>
		<path d="M396.2,131.2c-13,0-25.1,3.9-36.3,11.6c-11.2,7.8-20.6,18.8-28.2,33.3V175c0,0.1,0,0.2-0.1,0.3
			c-1.9,8.7-14.9,4.4-13.1-4.2c1.2-5.4,1.3-11.1,1.3-16.6c-0.2-0.1-0.3-0.1-0.5-0.2c-1.5-0.8-3-1.5-4.3-2.6c-1.5-1.2-2.6-2.5-3-4.4
			c-0.1-0.4-0.1-0.8-0.1-1.2c-1.5-0.7-2.6-1.6-3.4-3c-0.2,0-0.3,0-0.5,0c-2.6,0-4.6-1.7-5.7-3.8c-0.3-0.1-0.6-0.3-0.8-0.4
			c-0.6,0-1.1-0.1-1.7-0.1c-2.4,0-4.4-1.5-5.5-3.4h-33.1V350h77.1V222.6c5.9-7.6,15-13.1,27.2-16.3c12.2-3.3,25.7-4.9,40.6-4.9
			v-69.8C404.6,131.3,401.4,131.2,396.2,131.2z"/>
	</g>
</g>
<g class="st1">
	<rect x="-127.3" y="219" class="st4" width="92" height="28"/>
	<rect x="-127.3" y="414" class="st4" width="94" height="28"/>
	<rect x="-90.3" y="253" class="st4" width="205" height="28"/>
	<rect x="118.7" y="253" class="st4" width="45" height="28"/>
	<rect x="-90.3" y="286" class="st4" width="62" height="28"/>
	<rect x="-24.3" y="286" class="st4" width="188" height="28"/>
	<rect x="-42.3" y="318" class="st4" width="206" height="28"/>
	<rect x="-90.3" y="318" class="st4" width="43" height="28"/>
	<rect x="-91.3" y="351" class="st4" width="256" height="28"/>
	<rect x="-27.3" y="381" class="st4" width="61" height="28"/>
	<rect x="-92.3" y="381" class="st4" width="61" height="28"/>
	<rect x="36.7" y="381" class="st4" width="61" height="28"/>
	<rect x="100.7" y="381" class="st4" width="62" height="28"/>
</g>
</svg>
