<svg id="Layer_1" data-name="Layer 1" xmlns="http://www.w3.org/2000/svg" viewBox="0 0 48 48"><defs><style>.cls-1{fill:#ffa400;}</style></defs><title>logo50x50</title><rect class="cls-1" width="48" height="48" rx="3.3" ry="3.3"/><path d="M34.56,44H25V28.23a4.26,4.26,0,0,0-.88-3A2.87,2.87,0,0,0,22,24.28a2.61,2.61,0,0,0-1.08.3,5.88,5.88,0,0,0-1.26.8,6.77,6.77,0,0,0-1.18,1.25,7.3,7.3,0,0,0-.9,1.65V44H8V5.1h9.54v15a9.45,9.45,0,0,1,3.67-3.49,10.6,10.6,0,0,1,5.07-1.2,8.48,8.48,0,0,1,4.42,1A7.06,7.06,0,0,1,33.21,19a9.36,9.36,0,0,1,1.1,3.28,23,23,0,0,1,.25,3.3Z" transform="translate(-1 -1)"/><path d="M41.8,15.44A7.36,7.36,0,0,0,37.33,17a11.64,11.64,0,0,0-3.47,4.34v-.11c-.23,1.13-1.84.57-1.61-.54a11.31,11.31,0,0,0,.16-2.18s0,0-.06,0a2.52,2.52,0,0,1-.54-.33,1,1,0,0,1-.37-.57.88.88,0,0,1,0-.16A.93.93,0,0,1,31,17h-.06a.81.81,0,0,1-.7-.5l-.1-.06h-.21a.82.82,0,0,1-.68-.45H25.17V44h9.49V27.37A6.07,6.07,0,0,1,38,25.24a18.4,18.4,0,0,1,5-.64V15.49A9,9,0,0,0,41.8,15.44Z" transform="translate(-1 -1)"/></svg>